# AST/ASF file generated using VICON BodyLanguage
# -----------------------------------------------
:version 1.10
:name VICON
:units
  mass 1.0
  length 0.45
  angle deg
:documentation
   .ast/.asf automatically generated from VICON data using
   VICON BodyBuilder and BodyLanguage model FoxedUp or BRILLIANT.MOD
:root
   order TX TY TZ RX RY RZ
   axis XYZ
   position 0 0 0  
   orientation 0 0 0 
:bonedata
  begin
     id 1 
     name lhipjoint
     direction 0.702568 -0.596508 0.388042 
     length 2.56661 
     axis 0 0 0  XYZ
  end
  begin
     id 2 
     name lfemur
     direction 0.34202 -0.939693 0  
     length 6.58374  
     axis 0 0 20  XYZ
    dof rx ry rz
    limits (-160.0 20.0)
           (-70.0 70.0)
           (-60.0 70.0)
  end
  begin
     id 3 
     name ltibia
     direction 0.34202 -0.939693 0   
     length 6.62538   
     axis 0 0 20   XYZ
    dof rx
    limits (-10.0 170.0)
  end
  begin
     id 4 
     name lfoot
     direction 0.10455 -0.287249 0.952133   
     length 2.26699   
     axis -90 7.62852e-016 20   XYZ
    dof rx rz
    limits (-45.0 90.0)
           (-70.0 20.0)
  end
  begin
     id 5 
     name ltoes
     direction 1.53572e-011 -4.22322e-011 1   
     length 1.12949   
     axis -90 7.62852e-016 20   XYZ
    dof rx
    limits (-90.0 20.0)
  end
  begin
     id 6 
     name rhipjoint
     direction -0.728055 -0.574632 0.373811   
     length 2.66432  
     axis 0 0 0  XYZ 
  end
  begin
     id 7 
     name rfemur
     direction -0.34202 -0.939693 0   
     length 6.66732   
     axis 0 0 -20   XYZ
    dof rx ry rz
    limits (-160.0 20.0)
           (-70.0 70.0)
           (-70.0 60.0)
  end
  begin
     id 8 
     name rtibia
     direction -0.34202 -0.939693 0   
     length 6.59288   
     axis 0 0 -20   XYZ
    dof rx
    limits (-10.0 170.0)
 end
 begin
     id 9 
     name rfoot
     direction -0.119193 -0.327479 0.93731   
     length 2.38061  
     axis -90 -7.62852e-016 -20   XYZ
    dof rx rz
    limits (-45.0 90.0)
           (-20.0 70.0)
  end
  begin
     id 10 
     name rtoes
     direction -1.53547e-011 -4.21827e-011 1   
     length 1.17899   
     axis -90 -7.62852e-016 -20   XYZ
    dof rx
    limits (-90.0 20.0)
  end
  begin
     id 11 
     name lowerback
     direction -0.000416114 0.999912 -0.0132284   
     length 2.12109   
     axis 0 0 0   XYZ
    dof rx ry rz
    limits (-20.0 45.0)
           (-30.0 30.0)
           (-30.0 30.0)
  end
  begin
     id 12 
     name upperback
     direction -0.00136371 0.99809 0.0617608   
     length 2.10067   
     axis 0 0 0   XYZ
    dof rx ry rz
    limits (-20.0 45.0)
           (-30.0 30.0)
           (-30.0 30.0)
  end
  begin
     id 13 
     name thorax
     direction -3.43026e-005 0.997776 0.0666515   
     length 2.10618   
     axis 0 0 0   XYZ
    dof rx ry rz
    limits (-20.0 45.0)
           (-30.0 30.0)
           (-30.0 30.0)
  end
  begin
     id 14 
     name lowerneck
     direction 0.0398646 0.998418 0.0396592   
     length 1.83817   
     axis 0 0 0   XYZ
    dof rx ry rz
    limits (-20.0 45.0)
           (-30.0 30.0)
           (-30.0 30.0)
  end
  begin
     id 15 
     name upperneck
     direction -0.0367268 0.961527 -0.272244   
     length 1.81975   
     axis 0 0 0   XYZ
    dof rx ry rz
    limits (-20.0 45.0)
           (-30.0 30.0)
           (-30.0 30.0)
  end
  begin
     id 16
     name head
     direction -0.0182665 0.99536 -0.0944669  
     length 1.86026  
     axis 0 0 0   XYZ
    dof rx ry rz
    limits (-20.0 45.0)
           (-30.0 30.0)
           (-30.0 30.0)
  end
  begin
     id 17 
     name lclavicle
     direction 0.924239 0.361045 0.124212  
     length 3.26878  
     axis 0 0 0   XYZ
    dof ry rz
    limits (-20.0 10.0)
           (0.0 20.0)
  end
  begin
     id 18 
     name lhumerus
     direction 1 -4.48968e-011 -2.56583e-027   
     length 4.58538   
     axis 180 -30 -90   XYZ
    dof rx ry rz
    limits (-60.0 90.0)
           (-90.0 90.0)
           (-90.0 90.0)
  end
  begin
     id 19
     name lradius
     direction 1 -4.4898e-011 -5.50375e-027   
     length 2.68935   
     axis 180 -30 -90   XYZ
    dof rx
    limits (-10.0 170.0)
  end
  begin
     id 20
     name lwrist
     direction 1 -4.48939e-011 -1.48955e-026   
     length 1.34468   
     axis 9.0955e-015 90 90   XYZ
    dof ry
    limits (-180.0 0.0)
 end
  begin
     id 21 
     name lhand
     direction 1 -4.48936e-011 -2.97907e-026   
     length 0.585058   
     axis 1.90115e-014 90 90   XYZ
    dof rx rz
    limits (-90.0 90.0)
           (-45.0 45.0)
  end
  begin
     id 22 
     name lfingers
     direction 1 -4.49082e-011 -5.96235e-026   
     length 0.471689   
     axis 3.80223e-014 90 90   XYZ
    dof rx
    limits (0.0 90.0)
  end
  begin
     id 23
     name lthumb
     direction 0.707107 -6.3489e-011 0.707107   
     length 0.677253   
     axis -90 45 -3.84942e-014   XYZ
    dof rx rz
    limits (-45.0 45.0)
           (-45.0 45.0)
  end
  begin
     id 24 
     name rclavicle
     direction -0.923098 0.371783 0.0983239   
     length 3.19656  
     axis 0 0 0   XYZ 
    dof ry rz
    limits (-10.0 20.0)
           (-20.0 0.0)
  end
  begin
     id 25 
     name rhumerus
     direction -1 -4.48976e-011 -2.5492e-027  
     length 4.4745   
     axis 180 30 90   XYZ
    dof rx ry rz
    limits (-90.0 60.0)
           (-90.0 90.0)
           (-90.0 90.0)
  end
  begin
     id 26 
     name rradius
     direction -1 -4.48941e-011 -4.36555e-027   
     length 2.93896   
     axis 180 30 90   XYZ
    dof rx
    limits (-10.0 170.0)
  end
  begin
     id 27 
     name rwrist
     direction -1 -4.49044e-011 -1.49032e-026   
     length 1.46948   
     axis 9.0955e-015 -90 -90   XYZ
    dof ry
    limits (-180.0 0.0)
  end
  begin
     id 28
     name rhand
     direction -1 -4.48826e-011 -2.97749e-026   
     length 0.405092   
     axis 1.90115e-014 -90 -90   XYZ
    dof rx rz
    limits (-90.0 90.0)
           (-45.0 45.0)
  end
  begin
     id 29
     name rfingers
     direction -1 -4.49209e-011 -5.96602e-026   
     length 0.326596   
     axis 3.80223e-014 -90 -90   XYZ
    dof rx
    limits (0.0 90.0)
  end
  begin
     id 30
     name rthumb
     direction -0.707107 -6.34776e-011 0.707107   
     length 0.468928   
     axis -90 -45 3.84942e-014   XYZ
    dof rx rz
    limits (-45.0 45.0)
           (-45.0 45.0)
  end
:hierarchy
  begin
    root lhipjoint rhipjoint lowerback
    lhipjoint lfemur
    lfemur ltibia
    ltibia lfoot
    lfoot ltoes
    rhipjoint rfemur
    rfemur rtibia
    rtibia rfoot
    rfoot rtoes
    lowerback upperback
    upperback thorax
    thorax lowerneck lclavicle rclavicle
    lowerneck upperneck
    upperneck head
    lclavicle lhumerus
    lhumerus lradius
    lradius lwrist
    lwrist lhand lthumb
    lhand lfingers
    rclavicle rhumerus
    rhumerus rradius
    rradius rwrist
    rwrist rhand rthumb
    rhand rfingers
  end

#!OML:ASF H:\Punching\Project 1\Capture day 1\Session 1\female.ASF
:FULLY-SPECIFIED
:DEGREES
314
root -1.36089 15.3077 8.73227 12.7471 7.35085 1.47714
lowerback -0.946823 -0.343125 -0.387912
upperback -7.03986 -0.530541 -1.28189
thorax -6.79544 -0.278997 -1.09407
lowerneck -7.87917 -4.5097 3.24644
upperneck 19.8564 -6.63514 -0.493641
head 7.25623 -2.98233 -1.25725
rclavicle -3.34207e-015 7.15625e-015
rhumerus 39.7623 4.70821 -5.60941
rradius 88.131
rwrist 8.02078
rhand -31.9652 7.85337
rfingers 7.12502
rthumb -5.21514 -22.0625
lclavicle -3.34207e-015 7.15625e-015
lhumerus -57.9731 -34.8113 94.3527
lradius 111.692
lwrist -0.565858
lhand -27.909 8.34525
lfingers 7.12502
lthumb -1.29801 38.321
rfemur -35.1801 -6.50783 9.784
rtibia 40.3928
rfoot -12.7913 -9.60479
rtoes -4.63306
lfemur 1.95198 -17.2852 -7.33661
ltibia -3.18055e-015
lfoot -12.9659 20.2761
ltoes -10.841
315
root -1.44984 15.2896 8.78915 13.0104 7.9235 1.59397
lowerback -0.934711 -0.436852 -0.216749
upperback -7.18202 -0.662139 -1.45749
thorax -6.96274 -0.360939 -1.36708
lowerneck -7.85429 -4.59368 3.19511
upperneck 20.0364 -6.79692 -0.24227
head 7.31991 -3.03671 -1.18443
rclavicle 2.44008e-014 2.08724e-014
rhumerus 39.2293 2.43822 -5.721
rradius 86.5893
rwrist 10.0503
rhand -33.2207 8.73073
rfingers 7.12502
rthumb -6.4273 -21.1517
lclavicle 2.44008e-014 2.08724e-014
lhumerus -59.4218 -33.7584 94.0653
lradius 111.681
lwrist 0.151906
lhand -27.5184 8.45566
lfingers 7.12502
lthumb -0.920808 38.4334
rfemur -35.6233 -7.22572 10.1505
rtibia 41.4387
rfoot -13.6121 -9.34748
rtoes -4.54834
lfemur 1.66297 -17.6294 -6.91257
ltibia 1.90833e-014
lfoot -13.0511 20.4481
ltoes -11.1003
316
root -1.53373 15.2737 8.84289 13.2797 8.47259 1.69636
lowerback -0.940452 -0.519544 -0.0219326
upperback -7.29086 -0.776926 -1.61878
thorax -7.08563 -0.435979 -1.63935
lowerneck -7.89821 -4.67431 3.14351
upperneck 20.2031 -6.95838 0.0134999
head 7.39236 -3.08994 -1.11197
rclavicle -1.78906e-015 9.93923e-015
rhumerus 38.752 0.0784002 -5.97062
rradius 84.7084
rwrist 12.3829
rhand -34.6358 9.46989
rfingers 7.12502
rthumb -7.79329 -20.3665
lclavicle -1.78906e-015 9.93923e-015
lhumerus -60.7819 -32.6895 93.8113
lradius 111.634
lwrist 0.927138
lhand -27.1904 8.50089
lfingers 7.12502
lthumb -0.60397 38.4798
rfemur -36.1114 -7.98226 10.5286
rtibia 42.4864
rfoot -14.3461 -9.01757
rtoes -4.4836
lfemur 1.35065 -17.942 -6.48921
ltibia 9.54166e-015
lfoot -13.0995 20.5922
ltoes -11.23
317
root -1.61194 15.2595 8.89346 13.542 8.98855 1.78375
lowerback -0.963504 -0.590483 0.191603
upperback -7.35537 -0.873749 -1.76247
thorax -7.15185 -0.502799 -1.90481
lowerneck -8.03094 -4.75237 3.09425
upperneck 20.3684 -7.12126 0.268286
head 7.48081 -3.14254 -1.04309
rclavicle -7.45443e-015 -5.1684e-015
rhumerus 38.3757 -2.38934 -6.35727
rradius 82.4468
rwrist 14.9496
rhand -36.0302 9.86422
rfingers 7.12502
rthumb -9.1389 -19.9178
lclavicle -7.45443e-015 -5.1684e-015
lhumerus -62.0361 -31.5974 93.5847
lradius 111.543
lwrist 1.70876
lhand -26.8972 8.51966
lfingers 7.12502
lthumb -0.320844 38.4992
rfemur -36.6165 -8.76854 10.9197
rtibia 43.5086
rfoot -15.0018 -8.63825
rtoes -4.46884
lfemur 1.03795 -18.2172 -6.07605
ltibia -3.18055e-014
lfoot -13.0996 20.704
ltoes -11.2675
318
root -1.68464 15.2461 8.94056 13.7859 9.45347 1.85612
lowerback -0.982924 -0.647259 0.405952
upperback -7.38552 -0.949894 -1.88206
thorax -7.18318 -0.558517 -2.14663
lowerneck -8.21013 -4.82328 3.0443
upperneck 20.5273 -7.27604 0.518791
head 7.57618 -3.19081 -0.976226
rclavicle -3.72721e-015 1.82882e-014
rhumerus 38.1426 -4.94827 -6.87185
rradius 79.7883
rwrist 17.6756
rhand -37.1145 9.8033
rfingers 7.12502
rthumb -10.1851 -19.9302
lclavicle -3.72721e-015 1.82882e-014
lhumerus -63.2024 -30.4627 93.3958
lradius 111.4
lwrist 2.4302
lhand -26.5953 8.55163
lfingers 7.12502
lthumb -0.0292321 38.5314
rfemur -37.1141 -9.55223 11.321
rtibia 44.4733
rfoot -15.5866 -8.2418
rtoes -4.4939
lfemur 0.744569 -18.4415 -5.68011
ltibia 1.27222e-014
lfoot -13.0655 20.774
ltoes -11.1926
319
root -1.75194 15.2331 8.98397 14.0028 9.85924 1.92505
lowerback -0.967454 -0.689952 0.597543
upperback -7.40404 -1.00652 -1.97557
thorax -7.22123 -0.602319 -2.3492
lowerneck -8.40564 -4.89055 2.98384
upperneck 20.7075 -7.42493 0.760915
head 7.68237 -3.23643 -0.910935
rclavicle -4.42296e-015 -1.19271e-015
rhumerus 38.0816 -7.54863 -7.5189
rradius 76.7682
rwrist 20.4475
rhand -37.8716 9.21558
rfingers 7.12502
rthumb -10.9154 -20.4807
lclavicle -4.42296e-015 -1.19271e-015
lhumerus -64.3359 -29.2796 93.2796
lradius 111.215
lwrist 3.0853
lhand -26.2522 8.62653
lfingers 7.12502
lthumb 0.302189 38.6061
rfemur -37.5803 -10.3147 11.7156
rtibia 45.3568
rfoot -16.1174 -7.85238
rtoes -4.51076
lfemur 0.486001 -18.6131 -5.3184
ltibia 9.54166e-015
lfoot -13.0109 20.7876
ltoes -11.0002
320
root -1.81451 15.2202 9.02383 14.1902 10.1986 1.99238
lowerback -0.929683 -0.715667 0.752477
upperback -7.39825 -1.03976 -2.04232
thorax -7.24385 -0.631059 -2.50418
lowerneck -8.62021 -4.95267 2.90984
upperneck 20.8942 -7.56613 1.00121
head 7.79543 -3.27848 -0.844212
rclavicle 2.43138e-014 2.42517e-014
rhumerus 38.2055 -10.1863 -8.30474
rradius 73.4737
rwrist 23.1814
rhand -38.0229 8.29374
rfingers 7.12502
rthumb -11.0614 -21.3948
lclavicle 2.43138e-014 2.42517e-014
lhumerus -65.4008 -28.0499 93.217
lradius 110.993
lwrist 3.68401
lhand -25.8556 8.73392
lfingers 7.12502
lthumb 0.685178 38.7126
rfemur -38.0026 -11.0268 12.0976
rtibia 46.1446
rfoot -16.6074 -7.49996
rtoes -4.51634
lfemur 0.271961 -18.7274 -4.99324
ltibia -9.54166e-015
lfoot -12.9508 20.7379
ltoes -10.7117
321
root -1.87297 15.2066 9.06004 14.3492 10.467 2.07587
lowerback -0.801844 -0.721288 0.8425
upperback -7.43386 -1.04729 -2.0837
thorax -7.36032 -0.643123 -2.59688
lowerneck -8.69995 -5.01048 2.79532
upperneck 21.06 -7.69189 1.25766
head 7.88035 -3.31625 -0.759624
rclavicle -5.60324e-015 -1.90833e-014
rhumerus 38.4642 -12.7283 -9.20435
rradius 70.0754
rwrist 25.7027
rhand -37.6126 7.4101
rfingers 7.12502
rthumb -10.6656 -22.2992
lclavicle -5.60324e-015 -1.90833e-014
lhumerus -66.5243 -26.7774 93.2805
lradius 110.748
lwrist 4.25577
lhand -25.3906 8.85919
lfingers 7.12502
lthumb 1.13434 38.8359
rfemur -38.3765 -11.6667 12.4418
rtibia 46.8371
rfoot -17.0824 -7.20248
rtoes -4.43718
lfemur 0.105768 -18.7859 -4.72282
ltibia 1.59028e-014
lfoot -12.8954 20.6253
ltoes -10.3808
322
root -1.92742 15.1926 9.09364 14.4797 10.6677 2.17537
lowerback -0.655506 -0.704542 0.875493
upperback -7.45501 -1.02541 -2.1079
thorax -7.46858 -0.636219 -2.64106
lowerneck -8.787 -5.06739 2.6561
upperneck 21.2512 -7.81531 1.51822
head 7.97696 -3.35313 -0.670165
rclavicle -2.17172e-014 -4.77083e-015
rhumerus 38.8456 -15.2076 -10.2203
rradius 66.7535
rwrist 27.7894
rhand -36.748 6.9298
rfingers 7.12502
rthumb -9.83149 -22.8207
lclavicle -2.17172e-014 -4.77083e-015
lhumerus -67.5855 -25.4926 93.4063
lradius 110.491
lwrist 4.85995
lhand -24.8954 8.97589
lfingers 7.12502
lthumb 1.61256 38.9495
rfemur -38.6943 -12.2232 12.7411
rtibia 47.4417
rfoot -17.5472 -6.9677
rtoes -4.33189
lfemur -0.00365074 -18.7933 -4.50938
ltibia 3.18055e-015
lfoot -12.8605 20.4592
ltoes -10.0385
